<svg xmlns="http://www.w3.org/2000/svg" viewBox="0 0 300 120" fill="none">
  <rect width="300" height="120" rx="10" fill="#f5f5f5"/>
  
  <!-- Group 1: 3 cuadernos -->
  <rect x="40" y="30" width="20" height="30" fill="#4caf50" rx="2"/>
  <rect x="50" y="30" width="20" height="30" fill="#43a047" rx="2"/>
  <rect x="60" y="30" width="20" height="30" fill="#388e3c" rx="2"/>
  <text x="60" y="80" font-family="sans-serif" font-size="14" font-weight="bold" fill="#333" text-anchor="middle">3 u.</text>
  
  <text x="100" y="48" font-family="sans-serif" font-size="18" font-weight="bold" fill="#333" text-anchor="middle">=</text>
  <text x="135" y="48" font-family="sans-serif" font-size="20" font-weight="bold" fill="#2e7d32" text-anchor="middle">$45</text>
  
  <path d="M100,65 L100,90" fill="none" stroke="#666" stroke-width="2" marker-end="url(#arrowSimpleBook)"/>
  <text x="135" y="85" font-family="sans-serif" font-size="16" font-weight="bold" fill="#9c27b0" text-anchor="middle">1 u = ?</text>
  
  <line x1="175" y1="20" x2="175" y2="100" stroke="#ccc" stroke-width="2" stroke-dasharray="4"/>
  
  <!-- Group 2: 5 cuadernos -->
  <rect x="195" y="30" width="20" height="30" fill="#4caf50" rx="2"/>
  <rect x="205" y="30" width="20" height="30" fill="#43a047" rx="2"/>
  <rect x="215" y="30" width="20" height="30" fill="#388e3c" rx="2"/>
  <rect x="225" y="30" width="20" height="30" fill="#2e7d32" rx="2"/>
  <rect x="235" y="30" width="20" height="30" fill="#1b5e20" rx="2"/>
  <text x="225" y="80" font-family="sans-serif" font-size="14" font-weight="bold" fill="#333" text-anchor="middle">5 u.</text>

  <text x="270" y="48" font-family="sans-serif" font-size="18" font-weight="bold" fill="#333" text-anchor="middle">=</text>
  <text x="285" y="48" font-family="sans-serif" font-size="24" font-weight="bold" fill="#9c27b0" text-anchor="middle">?</text>
  
  <defs>
    <marker id="arrowSimpleBook" viewBox="0 0 10 10" refX="5" refY="5" markerWidth="4" markerHeight="4" orient="auto">
      <path d="M0,0 L10,5 L0,10 Z" fill="#666"/>
    </marker>
  </defs>
</svg>